<svg width="278" height="286" viewBox="0 0 278 286" fill="none" xmlns="http://www.w3.org/2000/svg">
<mask id="mask0" mask-type="alpha" maskUnits="userSpaceOnUse" x="0" y="0" width="278" height="286">
<rect width="278" height="286" fill="#A5E1AD"/>
</mask>
<g mask="url(#mask0)">
<path d="M261.489 -60.8876C282.164 -25.0776 327.954 -12.8082 363.764 -33.4831C399.574 -54.1581 411.843 -99.9481 391.168 -135.758C370.493 -171.568 324.703 -183.838 288.893 -163.163C253.083 -142.488 240.814 -96.6977 261.489 -60.8876Z" fill="url(#paint0_linear)"/>
<path d="M258.806 -55.9887C279.481 -20.1787 325.271 -7.90929 361.081 -28.5842C396.891 -49.2591 409.16 -95.0492 388.485 -130.859C367.81 -166.669 322.02 -178.939 286.21 -158.264C250.4 -137.589 238.131 -91.7987 258.806 -55.9887Z" fill="url(#paint1_linear)"/>
<path d="M255.995 -51.1237C276.67 -15.3137 322.46 -3.04432 358.27 -23.7192C394.08 -44.3941 406.349 -90.1842 385.675 -125.994C365 -161.804 319.21 -174.074 283.4 -153.399C247.59 -132.724 235.32 -86.9338 255.995 -51.1237Z" fill="url(#paint2_linear)"/>
<path d="M253.231 -46.178C273.906 -10.368 319.696 1.90139 355.506 -18.7735C391.316 -39.4484 403.586 -85.2385 382.911 -121.049C362.236 -156.859 316.446 -169.128 280.636 -148.453C244.826 -127.778 232.556 -81.9881 253.231 -46.178Z" fill="url(#paint3_linear)"/>
<path d="M250.548 -41.279C271.223 -5.46899 317.013 6.80042 352.823 -13.8745C388.633 -34.5494 400.903 -80.3395 380.228 -116.15C359.553 -151.96 313.763 -164.229 277.953 -143.554C242.143 -122.879 229.873 -77.089 250.548 -41.279Z" fill="url(#paint4_linear)"/>
<path d="M247.737 -36.4141C268.412 -0.604144 314.202 11.6653 350.012 -9.00965C385.822 -29.6846 398.092 -75.4746 377.417 -111.285C356.742 -147.095 310.952 -159.364 275.142 -138.689C239.332 -118.014 227.063 -72.2242 247.737 -36.4141Z" fill="url(#paint5_linear)"/>
<path d="M244.974 -31.4683C265.648 4.34167 311.439 16.6111 347.249 -4.06382C383.059 -24.7387 395.328 -70.5288 374.653 -106.339C353.978 -142.149 308.188 -154.418 272.378 -133.743C236.568 -113.068 224.299 -67.2784 244.974 -31.4683Z" fill="url(#paint6_linear)"/>
<path d="M242.29 -26.5693C262.965 9.24073 308.755 21.5101 344.565 0.835226C380.375 -19.8397 392.645 -65.6298 371.97 -101.44C351.295 -137.25 305.505 -149.519 269.695 -128.844C233.885 -108.169 221.615 -62.3793 242.29 -26.5693Z" fill="url(#paint7_linear)"/>
<path d="M239.48 -21.7046C260.155 14.1054 305.945 26.3749 341.755 5.69995C377.565 -14.975 389.834 -60.765 369.159 -96.575C348.484 -132.385 302.694 -144.654 266.884 -123.98C231.074 -103.305 218.805 -57.5146 239.48 -21.7046Z" fill="url(#paint8_linear)"/>
<path d="M236.797 -16.8055C257.472 19.0045 303.262 31.2739 339.072 10.599C374.882 -10.0759 387.151 -55.866 366.476 -91.676C345.801 -127.486 300.011 -139.755 264.201 -119.081C228.391 -98.4056 216.122 -52.6155 236.797 -16.8055Z" fill="url(#paint9_linear)"/>
<path d="M234.114 -11.9064C254.789 23.9036 300.579 36.173 336.389 15.4981C372.199 -5.17683 384.468 -50.9669 363.793 -86.7769C343.118 -122.587 297.328 -134.856 261.518 -114.181C225.708 -93.5065 213.439 -47.7164 234.114 -11.9064Z" fill="url(#paint10_linear)"/>
<path d="M231.384 -7.08844C252.059 28.7216 297.849 40.991 333.659 20.3161C369.469 -0.358846 381.739 -46.1489 361.064 -81.9589C340.389 -117.769 294.599 -130.038 258.789 -109.363C222.979 -88.6885 210.709 -42.8984 231.384 -7.08844Z" fill="url(#paint11_linear)"/>
<path d="M228.701 -2.18953C249.376 33.6205 295.166 45.8899 330.976 25.215C366.786 4.54007 379.056 -41.25 358.381 -77.06C337.706 -112.87 291.916 -125.139 256.106 -104.465C220.296 -83.7896 208.026 -37.9995 228.701 -2.18953Z" fill="url(#paint12_linear)"/>
<path d="M226.018 2.70951C246.693 38.5195 292.483 50.7889 328.293 30.114C364.103 9.43912 376.373 -36.351 355.698 -72.161C335.023 -107.971 289.233 -120.24 253.423 -99.5655C217.613 -78.8906 205.344 -33.1005 226.018 2.70951Z" fill="url(#paint13_linear)"/>
<path d="M223.37 7.48076C244.045 43.2908 289.835 55.5602 325.645 34.8853C361.455 14.2104 373.724 -31.5797 353.049 -67.3897C332.374 -103.2 286.584 -115.469 250.774 -94.7942C214.964 -74.1193 202.695 -28.3292 223.37 7.48076Z" fill="url(#paint14_linear)"/>
<path d="M220.687 12.3798C241.362 48.1898 287.152 60.4592 322.962 39.7843C358.772 19.1094 371.041 -26.6807 350.366 -62.4907C329.691 -98.3007 283.901 -110.57 248.091 -89.8952C212.281 -69.2203 200.012 -23.4302 220.687 12.3798Z" fill="url(#paint15_linear)"/>
<path d="M218.119 17.1042C238.794 52.9142 284.584 65.1836 320.394 44.5087C356.204 23.8338 368.474 -21.9563 347.799 -57.7663C327.124 -93.5763 281.334 -105.846 245.524 -85.1708C209.714 -64.4959 197.444 -18.7058 218.119 17.1042Z" fill="url(#paint16_linear)"/>
<path d="M215.517 21.9565C236.192 57.7665 281.982 70.0359 317.792 49.361C353.602 28.6861 365.872 -17.104 345.197 -52.914C324.522 -88.724 278.732 -100.993 242.922 -80.3185C207.112 -59.6436 194.842 -13.8535 215.517 21.9565Z" fill="url(#paint17_linear)"/>
<path d="M212.95 26.6808C233.625 62.4908 279.415 74.7603 315.225 54.0853C351.035 33.4104 363.304 -12.3796 342.629 -48.1897C321.954 -83.9997 276.164 -96.2691 240.354 -75.5942C204.544 -54.9193 192.275 -9.12917 212.95 26.6808Z" fill="url(#paint18_linear)"/>
<path d="M210.382 31.4053C231.057 67.2153 276.847 79.4848 312.657 58.8098C348.467 38.1349 360.736 -7.65516 340.061 -43.4652C319.387 -79.2752 273.596 -91.5446 237.786 -70.8697C201.976 -50.1948 189.707 -4.40468 210.382 31.4053Z" fill="url(#paint19_linear)"/>
<path d="M207.896 36.0828C228.571 71.8928 274.361 84.1623 310.171 63.4873C345.981 42.8124 358.25 -2.97767 337.575 -38.7877C316.9 -74.5977 271.11 -86.8671 235.3 -66.1922C199.49 -45.5173 187.221 0.272813 207.896 36.0828Z" fill="url(#paint20_linear)"/>
<path d="M205.456 40.8416C226.131 76.6517 271.921 88.9211 307.731 68.2461C343.541 47.5712 355.81 1.78113 335.135 -34.0289C314.46 -69.8389 268.67 -82.1083 232.86 -61.4334C197.05 -40.7585 184.781 5.03163 205.456 40.8416Z" fill="url(#paint21_linear)"/>
<path d="M202.969 45.5191C223.644 81.3291 269.434 93.5985 305.244 72.9236C341.054 52.2487 353.324 6.45862 332.649 -29.3514C311.974 -65.1614 266.184 -77.4308 230.374 -56.7559C194.564 -36.081 182.294 9.70908 202.969 45.5191Z" fill="url(#paint22_linear)"/>
<path d="M200.517 50.0689C221.192 85.8789 266.982 98.1483 302.792 77.4734C338.602 56.7985 350.871 11.0084 330.196 -24.8016C309.522 -60.6116 263.731 -72.881 227.921 -52.2061C192.111 -31.5312 179.842 14.2589 200.517 50.0689Z" fill="url(#paint23_linear)"/>
<path d="M198.111 54.6997C218.786 90.5098 264.576 102.779 300.386 82.1043C336.196 61.4293 348.466 15.6393 327.791 -20.1707C307.116 -55.9807 261.326 -68.2502 225.516 -47.5753C189.706 -26.9003 177.437 18.8897 198.111 54.6997Z" fill="url(#paint24_linear)"/>
<path d="M195.787 59.2837C216.462 95.0938 262.252 107.363 298.062 86.6883C333.872 66.0133 346.141 20.2233 325.466 -15.5868C304.792 -51.3968 259.002 -63.6662 223.191 -42.9913C187.381 -22.3163 175.112 23.4737 195.787 59.2837Z" fill="url(#paint25_linear)"/>
<path d="M193.497 63.7399C214.172 99.5499 259.962 111.819 295.772 91.1444C331.582 70.4695 343.851 24.6794 323.176 -11.1306C302.501 -46.9406 256.711 -59.21 220.901 -38.5351C185.091 -17.8602 172.822 27.9299 193.497 63.7399Z" fill="url(#paint26_linear)"/>
<path d="M191.253 68.277C211.928 104.087 257.718 116.356 293.528 95.6815C329.338 75.0066 341.608 29.2165 320.933 -6.59348C300.258 -42.4035 254.468 -54.6729 218.658 -33.998C182.848 -13.3231 170.578 32.467 191.253 68.277Z" fill="url(#paint27_linear)"/>
<path d="M189.044 72.6865C209.719 108.496 255.509 120.766 291.319 100.091C327.129 79.416 339.398 33.626 318.724 -2.18405C298.049 -37.9941 252.259 -50.2635 216.449 -29.5886C180.639 -8.91363 168.369 36.8765 189.044 72.6865Z" fill="url(#paint28_linear)"/>
<path d="M186.835 77.0959C207.51 112.906 253.3 125.175 289.11 104.5C324.92 83.8255 337.19 38.0354 316.515 2.22537C295.84 -33.5846 250.05 -45.854 214.24 -25.1791C178.43 -4.50421 166.16 41.2859 186.835 77.0959Z" fill="url(#paint29_linear)"/>
<path d="M184.707 81.4585C205.382 117.268 251.172 129.538 286.982 108.863C322.792 88.188 335.061 42.3979 314.386 6.58793C293.712 -29.2221 247.921 -41.4915 212.111 -20.8166C176.301 -0.141647 164.032 45.6484 184.707 81.4585Z" fill="url(#paint30_linear)"/>
<path d="M182.532 85.74C203.207 121.55 248.997 133.819 284.807 113.145C320.617 92.4696 332.886 46.6795 312.211 10.8695C291.536 -24.9405 245.746 -37.2099 209.936 -16.535C174.126 4.13994 161.857 49.93 182.532 85.74Z" fill="url(#paint31_linear)"/>
<path d="M180.566 90.009C201.241 125.819 247.031 138.088 282.841 117.413C318.651 96.7386 330.92 50.9485 310.246 15.1385C289.571 -20.6715 243.781 -32.941 207.971 -12.266C172.161 8.40887 159.891 54.199 180.566 90.009Z" fill="url(#paint32_linear)"/>
<path d="M178.553 94.1969C199.228 130.007 245.018 142.276 280.828 121.601C316.638 100.927 328.908 55.1365 308.233 19.3265C287.558 -16.4836 241.768 -28.753 205.958 -8.07806C170.148 12.5969 157.878 58.3869 178.553 94.1969Z" fill="url(#paint33_linear)"/>
<path d="M176.621 98.338C197.296 134.148 243.086 146.417 278.896 125.743C314.706 105.068 326.976 59.2776 306.301 23.4676C285.626 -12.3424 239.836 -24.6119 204.026 -3.93694C168.216 16.738 155.947 62.528 176.621 98.338Z" fill="url(#paint34_linear)"/>
<path d="M174.69 102.479C195.365 138.289 241.155 150.559 276.965 129.884C312.775 109.209 325.044 63.4188 304.369 27.6088C283.694 -8.20121 237.904 -20.4706 202.094 0.204288C166.284 20.8792 154.015 66.6693 174.69 102.479Z" fill="url(#paint35_linear)"/>
<path d="M172.92 106.527C193.595 142.337 239.385 154.606 275.195 133.931C311.005 113.256 323.274 67.4663 302.6 31.6563C281.925 -4.15372 236.135 -16.4231 200.325 4.25178C164.515 24.9267 152.245 70.7168 172.92 106.527Z" fill="url(#paint36_linear)"/>
<path d="M171.104 110.493C191.779 146.303 237.569 158.573 273.379 137.898C309.189 117.223 321.458 71.4329 300.783 35.6228C280.108 -0.187171 234.318 -12.4566 198.508 8.21832C162.698 28.8932 150.429 74.6833 171.104 110.493Z" fill="url(#paint37_linear)"/>
<path d="M169.415 114.494C190.09 150.304 235.88 162.574 271.69 141.899C307.5 121.224 319.769 75.4336 299.094 39.6236C278.42 3.81356 232.629 -8.45585 196.819 12.2191C161.009 32.894 148.74 78.6841 169.415 114.494Z" fill="url(#paint38_linear)"/>
<path d="M167.761 118.367C188.436 154.177 234.226 166.446 270.036 145.772C305.846 125.097 318.115 79.3065 297.44 43.4965C276.765 7.68649 230.975 -4.58293 195.165 16.092C159.355 36.7669 147.086 82.557 167.761 118.367Z" fill="url(#paint39_linear)"/>
<path d="M166.187 122.193C186.862 158.003 232.652 170.273 268.462 149.598C304.272 128.923 316.542 83.1327 295.867 47.3227C275.192 11.5127 229.402 -0.756758 193.592 19.9182C157.782 40.5931 145.512 86.3832 166.187 122.193Z" fill="url(#paint40_linear)"/>
<path d="M164.567 125.938C185.242 161.748 231.032 174.018 266.842 153.343C302.652 132.668 314.921 86.8777 294.247 51.0677C273.572 15.2577 227.782 2.98824 191.972 23.6632C156.162 44.3381 143.892 90.1282 164.567 125.938Z" fill="url(#paint41_linear)"/>
<path d="M163.109 129.59C183.784 165.4 229.574 177.669 265.384 156.994C301.194 136.319 313.464 90.5293 292.789 54.7193C272.114 18.9093 226.324 6.63984 190.514 27.3148C154.704 47.9897 142.434 93.7797 163.109 129.59Z" fill="url(#paint42_linear)"/>
<path d="M161.732 133.194C182.407 169.004 228.197 181.274 264.007 160.599C299.817 139.924 312.086 94.1339 291.412 58.3239C270.737 22.5139 224.947 10.2445 189.137 30.9194C153.327 51.5943 141.057 97.3844 161.732 133.194Z" fill="url(#paint43_linear)"/>
<path d="M160.436 136.752C181.111 172.562 226.901 184.832 262.711 164.157C298.521 143.482 310.791 97.6919 290.116 61.8819C269.441 26.0719 223.651 13.8024 187.841 34.4774C152.031 55.1523 139.761 100.942 160.436 136.752Z" fill="url(#paint44_linear)"/>
<path d="M159.14 140.31C179.815 176.12 225.605 188.39 261.415 167.715C297.225 147.04 309.495 101.25 288.82 65.4399C268.145 29.6298 222.355 17.3604 186.545 38.0353C150.735 58.7103 138.465 104.5 159.14 140.31Z" fill="url(#paint45_linear)"/>
<path d="M157.96 143.694C178.635 179.504 224.425 191.773 260.235 171.098C296.045 150.423 308.314 104.633 287.639 68.823C266.964 33.013 221.174 20.7436 185.364 41.4185C149.554 62.0934 137.285 107.884 157.96 143.694Z" fill="url(#paint46_linear)"/>
<path d="M156.86 147.03C177.535 182.84 223.325 195.109 259.135 174.435C294.945 153.76 307.215 107.97 286.54 72.1596C265.865 36.3496 220.075 24.0802 184.265 44.7551C148.455 65.43 136.185 111.22 156.86 147.03Z" fill="url(#paint47_linear)"/>
<path d="M155.795 150.239C176.47 186.049 222.26 198.318 258.07 177.643C293.88 156.968 306.149 111.178 285.475 75.3681C264.8 39.5581 219.01 27.2887 183.2 47.9636C147.39 68.6385 135.12 114.429 155.795 150.239Z" fill="url(#paint48_linear)"/>
<path d="M154.857 153.482C175.532 189.292 221.322 201.561 257.133 180.886C292.943 160.211 305.212 114.421 284.537 78.611C263.862 42.801 218.072 30.5316 182.262 51.2065C146.452 71.8814 134.183 117.672 154.857 153.482Z" fill="url(#paint49_linear)"/>
<path d="M154.035 156.55C174.71 192.36 220.5 204.629 256.31 183.954C292.12 163.279 304.39 117.489 283.715 81.6794C263.04 45.8693 217.25 33.5999 181.44 54.2748C145.63 74.9498 133.36 120.74 154.035 156.55Z" fill="url(#paint50_linear)"/>
<path d="M153.167 159.537C173.842 195.347 219.632 207.616 255.442 186.942C291.252 166.267 303.521 120.477 282.846 84.6665C262.171 48.8565 216.381 36.5871 180.571 57.262C144.761 77.937 132.492 123.727 153.167 159.537Z" fill="url(#paint51_linear)"/>
<path d="M152.46 162.431C173.135 198.241 218.925 210.51 254.735 189.835C290.545 169.16 302.814 123.37 282.139 87.5601C261.464 51.7501 215.674 39.4807 179.864 60.1556C144.054 80.8305 131.785 126.621 152.46 162.431Z" fill="url(#paint52_linear)"/>
<path d="M151.834 165.277C172.509 201.087 218.299 213.357 254.109 192.682C289.919 172.007 302.188 126.217 281.513 90.4069C260.838 54.5969 215.048 42.3275 179.238 63.0024C143.428 83.6773 131.159 129.467 151.834 165.277Z" fill="url(#paint53_linear)"/>
<path d="M151.289 168.077C171.964 203.887 217.754 216.157 253.564 195.482C289.374 174.807 301.644 129.017 280.969 93.2069C260.294 57.3969 214.504 45.1275 178.694 65.8024C142.884 86.4774 130.614 132.267 151.289 168.077Z" fill="url(#paint54_linear)"/>
<path d="M150.779 170.75C171.454 206.56 217.244 218.829 253.054 198.154C288.864 177.479 301.133 131.689 280.458 95.8792C259.783 60.0692 213.993 47.7998 178.183 68.4747C142.373 89.1496 130.104 134.94 150.779 170.75Z" fill="url(#paint55_linear)"/>
<path d="M150.43 173.328C171.105 209.138 216.895 221.408 252.705 200.733C288.515 180.058 300.785 134.268 280.11 98.4577C259.435 62.6477 213.645 50.3783 177.835 71.0532C142.025 91.7281 129.755 137.518 150.43 173.328Z" fill="url(#paint56_linear)"/>
<path d="M150.163 175.86C170.838 211.67 216.628 223.94 252.438 203.265C288.248 182.59 300.517 136.8 279.842 100.99C259.168 65.1795 213.377 52.9101 177.567 73.585C141.757 94.26 129.488 140.05 150.163 175.86Z" fill="url(#paint57_linear)"/>
<path d="M150.011 178.217C170.686 214.027 216.476 226.297 252.286 205.622C288.096 184.947 300.366 139.157 279.691 103.347C259.016 67.5367 213.226 55.2673 177.416 75.9422C141.606 96.6171 129.336 142.407 150.011 178.217Z" fill="url(#paint58_linear)"/>
<path d="M149.812 180.493C170.487 216.303 216.277 228.573 252.087 207.898C287.897 187.223 300.167 141.433 279.492 105.623C258.817 69.8128 213.027 57.5434 177.217 78.2183C141.407 98.8932 129.137 144.683 149.812 180.493Z" fill="url(#paint59_linear)"/>
<path d="M149.903 182.71C170.578 218.52 216.368 230.79 252.178 210.115C287.988 189.44 300.258 143.65 279.583 107.84C258.908 72.0296 213.118 59.7602 177.308 80.4352C141.498 101.11 129.228 146.9 149.903 182.71Z" fill="url(#paint60_linear)"/>
<path d="M149.948 184.846C170.623 220.656 216.413 232.925 252.223 212.25C288.033 191.575 300.302 145.785 279.627 109.975C258.952 74.1652 213.162 61.8958 177.352 82.5708C141.542 103.246 129.273 149.036 149.948 184.846Z" fill="url(#paint61_linear)"/>
<path d="M150.107 186.807C170.782 222.617 216.572 234.886 252.382 214.212C288.192 193.537 300.462 147.746 279.787 111.936C259.112 76.1264 213.322 63.857 177.512 84.532C141.702 105.207 129.432 150.997 150.107 186.807Z" fill="url(#paint62_linear)"/>
<path d="M150.429 188.675C171.104 224.485 216.894 236.754 252.704 216.079C288.514 195.404 300.784 149.614 280.109 113.804C259.434 77.994 213.644 65.7246 177.834 86.3995C142.024 107.074 129.754 152.864 150.429 188.675Z" fill="url(#paint63_linear)"/>
<path d="M150.832 190.495C171.507 226.305 217.297 238.574 253.107 217.9C288.917 197.225 301.186 151.435 280.511 115.625C259.836 79.8145 214.046 67.5451 178.236 88.22C142.426 108.895 130.157 154.685 150.832 190.495Z" fill="url(#paint64_linear)"/>
<path d="M151.35 192.141C172.025 227.951 217.815 240.221 253.625 219.546C289.435 198.871 301.704 153.081 281.029 117.271C260.355 81.4607 214.565 69.1912 178.755 89.8661C142.945 110.541 130.675 156.331 151.35 192.141Z" fill="url(#paint65_linear)"/>
<path d="M151.949 193.741C172.624 229.551 218.414 241.82 254.224 221.145C290.034 200.47 302.304 154.68 281.629 118.87C260.954 83.06 215.164 70.7906 179.354 91.4655C143.544 112.14 131.274 157.931 151.949 193.741Z" fill="url(#paint66_linear)"/>
<path d="M152.663 195.165C173.338 230.975 219.128 243.245 254.938 222.57C290.748 201.895 303.018 156.105 282.343 120.295C261.668 84.4846 215.878 72.2152 180.068 92.8901C144.258 113.565 131.989 159.355 152.663 195.165Z" fill="url(#paint67_linear)"/>
<path d="M153.54 196.496C174.215 232.306 220.005 244.576 255.815 223.901C291.625 203.226 303.894 157.436 283.219 121.626C262.545 85.8156 216.754 73.5462 180.944 94.2211C145.134 114.896 132.865 160.686 153.54 196.496Z" fill="url(#paint68_linear)"/>
<path d="M154.498 197.78C175.173 233.59 220.963 245.86 256.773 225.185C292.583 204.51 304.852 158.72 284.177 122.91C263.502 87.0999 217.712 74.8305 181.902 95.5054C146.092 116.18 133.823 161.97 154.498 197.78Z" fill="url(#paint69_linear)"/>
<path d="M155.489 198.937C176.164 234.747 221.954 247.016 257.764 226.341C293.574 205.666 305.844 159.876 285.169 124.066C264.494 88.2563 218.704 75.9869 182.894 96.6618C147.084 117.337 134.814 163.127 155.489 198.937Z" fill="url(#paint70_linear)"/>
<path d="M156.631 199.791C177.306 235.601 223.096 247.87 258.906 227.195C294.716 206.52 306.985 160.73 286.31 124.92C265.635 89.1103 219.845 76.8409 184.035 97.5158C148.225 118.191 135.956 163.981 156.631 199.791Z" fill="url(#paint71_linear)"/>
<path d="M157.725 200.564C178.4 236.374 224.19 248.643 260 227.968C295.81 207.293 308.08 161.503 287.405 125.693C266.73 89.8831 220.94 77.6137 185.13 98.2886C149.32 118.964 137.051 164.754 157.725 200.564Z" fill="url(#paint72_linear)"/>
<path d="M158.901 201.29C179.576 237.1 225.366 249.369 261.176 228.694C296.986 208.019 309.256 162.229 288.581 126.419C267.906 90.6092 222.116 78.3398 186.306 99.0147C150.496 119.69 138.226 165.48 158.901 201.29Z" fill="url(#paint73_linear)"/>
<path d="M160.192 201.841C180.867 237.651 226.657 249.921 262.467 229.246C298.277 208.571 310.547 162.781 289.872 126.971C269.197 91.1606 223.407 78.8912 187.597 99.5661C151.787 120.241 139.517 166.031 160.192 201.841Z" fill="url(#paint74_linear)"/>
<path d="M161.564 202.346C182.239 238.156 228.029 250.425 263.839 229.75C299.649 209.075 311.919 163.285 291.244 127.475C270.569 91.6654 224.779 79.3959 188.969 100.071C153.159 120.746 140.889 166.536 161.564 202.346Z" fill="url(#paint75_linear)"/>
<path d="M162.971 202.723C183.645 238.533 229.436 250.802 265.246 230.127C301.056 209.452 313.325 163.662 292.65 127.852C271.975 92.0421 226.185 79.7727 190.375 100.448C154.565 121.123 142.296 166.913 162.971 202.723Z" fill="url(#paint76_linear)"/>
<path d="M164.458 203.053C185.133 238.863 230.923 251.132 266.733 230.457C302.543 209.782 314.812 163.992 294.137 128.182C273.462 92.3722 227.672 80.1027 191.862 100.778C156.052 121.453 143.783 167.243 164.458 203.053Z" fill="url(#paint77_linear)"/>
<path d="M166.06 203.208C186.735 239.018 232.525 251.288 268.335 230.613C304.145 209.938 316.415 164.148 295.74 128.338C275.065 92.5276 229.275 80.2582 193.465 100.933C157.655 121.608 145.385 167.398 166.06 203.208Z" fill="url(#paint78_linear)"/>
<path d="M167.663 203.363C188.338 239.173 234.128 251.443 269.938 230.768C305.748 210.093 318.018 164.303 297.343 128.493C276.668 92.6829 230.878 80.4135 195.068 101.088C159.258 121.763 146.988 167.553 167.663 203.363Z" fill="url(#paint79_linear)"/>
<path d="M169.381 203.344C190.056 239.154 235.846 251.424 271.656 230.749C307.466 210.074 319.735 164.284 299.06 128.474C278.386 92.6637 232.595 80.3942 196.785 101.069C160.975 121.744 148.706 167.534 169.381 203.344Z" fill="url(#paint80_linear)"/>
<path d="M171.18 203.278C191.855 239.088 237.645 251.358 273.455 230.683C309.265 210.008 321.534 164.218 300.86 128.408C280.185 92.5976 234.395 80.3282 198.585 101.003C162.775 121.678 150.505 167.468 171.18 203.278Z" fill="url(#paint81_linear)"/>
<path d="M173.094 203.037C193.769 238.847 239.559 251.117 275.369 230.442C311.179 209.767 323.449 163.977 302.774 128.167C282.099 92.3569 236.309 80.0875 200.499 100.762C164.689 121.437 152.419 167.227 173.094 203.037Z" fill="url(#paint82_linear)"/>
<path d="M175.009 202.797C195.684 238.607 241.474 250.876 277.284 230.201C313.094 209.526 325.363 163.736 304.688 127.926C284.013 92.1163 238.223 79.8469 202.413 100.522C166.603 121.197 154.334 166.987 175.009 202.797Z" fill="url(#paint83_linear)"/>
<path d="M177.004 202.509C197.679 238.319 243.469 250.589 279.279 229.914C315.089 209.239 327.358 163.449 306.684 127.639C286.009 91.8287 240.219 79.5593 204.409 100.234C168.599 120.909 156.329 166.699 177.004 202.509Z" fill="url(#paint84_linear)"/>
<path d="M179.115 202.047C199.79 237.857 245.58 250.127 281.39 229.452C317.2 208.777 329.469 162.987 308.794 127.177C288.119 91.3667 242.329 79.0972 206.519 99.7722C170.709 120.447 158.44 166.237 179.115 202.047Z" fill="url(#paint85_linear)"/>
<path d="M181.179 201.504C201.853 237.314 247.644 249.583 283.454 228.908C319.264 208.234 331.533 162.443 310.858 126.633C290.183 90.8234 244.393 78.554 208.583 99.229C172.773 119.904 160.504 165.694 181.179 201.504Z" fill="url(#paint86_linear)"/>
<path d="M183.404 200.867C204.079 236.677 249.869 248.947 285.679 228.272C321.489 207.597 333.759 161.807 313.084 125.997C292.409 90.1866 246.619 77.9172 210.809 98.5921C174.999 119.267 162.729 165.057 183.404 200.867Z" fill="url(#paint87_linear)"/>
<path d="M185.712 200.184C206.386 235.994 252.177 248.263 287.987 227.588C323.797 206.913 336.066 161.123 315.391 125.313C294.716 89.5031 248.926 77.2337 213.116 97.9086C177.306 118.584 165.037 164.374 185.712 200.184Z" fill="url(#paint88_linear)"/>
<path d="M187.972 199.419C208.647 235.229 254.437 247.499 290.247 226.824C326.057 206.149 338.326 160.359 317.651 124.549C296.976 88.7386 251.186 76.4692 215.376 97.1441C179.566 117.819 167.297 163.609 187.972 199.419Z" fill="url(#paint89_linear)"/>
<path d="M190.394 198.561C211.069 234.371 256.859 246.64 292.669 225.965C328.479 205.29 340.748 159.5 320.073 123.69C299.399 87.8803 253.608 75.6109 217.798 96.2858C181.988 116.961 169.719 162.751 190.394 198.561Z" fill="url(#paint90_linear)"/>
<path d="M192.897 197.656C213.572 233.466 259.362 245.735 295.172 225.06C330.982 204.385 343.252 158.595 322.577 122.785C301.902 86.9754 256.112 74.706 220.302 95.3809C184.492 116.056 172.222 161.846 192.897 197.656Z" fill="url(#paint91_linear)"/>
<path d="M195.354 196.67C216.029 232.48 261.819 244.749 297.629 224.074C333.439 203.399 345.708 157.609 325.033 121.799C304.358 85.9893 258.568 73.7199 222.758 94.3948C186.948 115.07 174.679 160.86 195.354 196.67Z" fill="url(#paint92_linear)"/>
<path d="M197.926 195.509C218.601 231.319 264.391 243.589 300.201 222.914C336.011 202.239 348.28 156.449 327.605 120.639C306.93 84.8286 261.14 72.5592 225.33 93.2341C189.52 113.909 177.251 159.699 197.926 195.509Z" fill="url(#paint93_linear)"/>
<path d="M200.544 194.43C221.219 230.24 267.009 242.509 302.819 221.834C338.629 201.159 350.899 155.369 330.224 119.559C309.549 83.7491 263.759 71.4797 227.949 92.1546C192.139 112.83 179.869 158.62 200.544 194.43Z" fill="url(#paint94_linear)"/>
<path d="M203.232 193.094C223.907 228.904 269.697 241.174 305.507 220.499C341.317 199.824 353.586 154.034 332.911 118.224C312.236 82.4137 266.446 70.1442 230.636 90.8192C194.826 111.494 182.557 157.284 203.232 193.094Z" fill="url(#paint95_linear)"/>
<path d="M205.966 191.84C226.641 227.65 272.431 239.919 308.241 219.245C344.051 198.57 356.32 152.78 335.645 116.97C314.97 81.1595 269.18 68.8901 233.37 89.565C197.56 110.24 185.291 156.03 205.966 191.84Z" fill="url(#paint96_linear)"/>
<path d="M208.815 190.411C229.49 226.221 275.28 238.491 311.09 217.816C346.9 197.141 359.169 151.351 338.494 115.541C317.819 79.7306 272.029 67.4611 236.219 88.1361C200.409 108.811 188.14 154.601 208.815 190.411Z" fill="url(#paint97_linear)"/>
<path d="M211.664 188.982C232.339 224.792 278.129 237.061 313.939 216.387C349.749 195.712 362.019 149.922 341.344 114.112C320.669 78.3016 274.879 66.0322 239.069 86.7071C203.259 107.382 190.989 153.172 211.664 188.982Z" fill="url(#paint98_linear)"/>
<path d="M214.548 187.425C235.223 223.235 281.013 235.505 316.823 214.83C352.633 194.155 364.902 148.365 344.227 112.555C323.552 76.745 277.762 64.4755 241.952 85.1505C206.142 105.825 193.873 151.615 214.548 187.425Z" fill="url(#paint99_linear)"/>
<path d="M217.512 185.822C238.187 221.632 283.977 233.901 319.787 213.226C355.597 192.551 367.867 146.761 347.192 110.951C326.517 75.1413 280.727 62.8719 244.917 83.5468C209.107 104.222 196.837 150.012 217.512 185.822Z" fill="url(#paint100_linear)"/>
<path d="M220.511 184.09C241.186 219.9 286.976 232.17 322.786 211.495C358.596 190.82 370.866 145.03 350.191 109.22C329.516 73.41 283.726 61.1406 247.916 81.8155C212.106 102.49 199.836 148.28 220.511 184.09Z" fill="url(#paint101_linear)"/>
<path d="M223.557 182.44C244.232 218.25 290.022 230.52 325.832 209.845C361.642 189.17 373.911 143.38 353.236 107.57C332.561 71.7596 286.771 59.4902 250.961 80.1651C215.151 100.84 202.882 146.63 223.557 182.44Z" fill="url(#paint102_linear)"/>
<path d="M226.718 180.615C247.393 216.425 293.183 228.695 328.993 208.02C364.803 187.345 377.072 141.555 356.397 105.745C335.722 69.9347 289.932 57.6652 254.122 78.3402C218.312 99.0151 206.043 144.805 226.718 180.615Z" fill="url(#paint103_linear)"/>
<path d="M229.832 178.709C250.507 214.519 296.297 226.789 332.107 206.114C367.917 185.439 380.186 139.649 359.511 103.839C338.836 68.0286 293.046 55.7592 257.236 76.4342C221.426 97.1091 209.157 142.899 229.832 178.709Z" fill="url(#paint104_linear)"/>
<path d="M233.027 176.756C253.702 212.566 299.492 224.836 335.302 204.161C371.112 183.486 383.381 137.696 362.706 101.886C342.032 66.0759 296.241 53.8065 260.431 74.4814C224.621 95.1563 212.352 140.946 233.027 176.756Z" fill="url(#paint105_linear)"/>
<path d="M236.222 174.804C256.897 210.614 302.687 222.883 338.497 202.208C374.307 181.533 386.577 135.743 365.902 99.9331C345.227 64.1231 299.437 51.8537 263.627 72.5286C227.817 93.2036 215.547 138.994 236.222 174.804Z" fill="url(#paint106_linear)"/>
<path d="M239.579 172.757C260.254 208.567 306.044 220.837 341.854 200.162C377.664 179.487 389.934 133.697 369.259 97.8866C348.584 62.0766 302.794 49.8072 266.984 70.4821C231.174 91.157 218.905 136.947 239.579 172.757Z" fill="url(#paint107_linear)"/>
<path d="M242.89 170.63C263.565 206.44 309.355 218.709 345.165 198.034C380.975 177.359 393.244 131.569 372.57 95.7592C351.895 59.9492 306.105 47.6798 270.295 68.3547C234.485 89.0296 222.215 134.82 242.89 170.63Z" fill="url(#paint108_linear)"/>
<path d="M246.282 168.455C266.957 204.266 312.747 216.535 348.557 195.86C384.367 175.185 396.636 129.395 375.961 93.585C355.286 57.775 309.496 45.5056 273.686 66.1805C237.876 86.8554 225.607 132.645 246.282 168.455Z" fill="url(#paint109_linear)"/>
<path d="M249.626 166.2C270.301 202.01 316.091 214.28 351.901 193.605C387.711 172.93 399.981 127.14 379.306 91.3298C358.631 55.5197 312.841 43.2503 277.031 63.9252C241.221 84.6001 228.951 130.39 249.626 166.2Z" fill="url(#paint110_linear)"/>
<path d="M253.133 163.851C273.808 199.661 319.598 211.931 355.408 191.256C391.218 170.581 403.488 124.791 382.813 88.9809C362.138 53.1709 316.348 40.9014 280.538 61.5764C244.728 82.2513 232.458 128.041 253.133 163.851Z" fill="url(#paint111_linear)"/>
<path d="M256.64 161.503C277.315 197.313 323.105 209.582 358.915 188.907C394.725 168.232 406.994 122.442 386.32 86.632C365.645 50.822 319.855 38.5526 284.045 59.2275C248.235 79.9024 235.965 125.692 256.64 161.503Z" fill="url(#paint112_linear)"/>
<path d="M260.147 159.153C280.822 194.964 326.612 207.233 362.422 186.558C398.232 165.883 410.501 120.093 389.826 84.283C369.151 48.473 323.361 36.2036 287.551 56.8785C251.741 77.5534 239.472 123.343 260.147 159.153Z" fill="url(#paint113_linear)"/>
<path d="M263.688 156.677C284.363 192.487 330.153 204.756 365.963 184.081C401.773 163.406 414.042 117.616 393.367 81.8063C372.692 45.9963 326.902 33.7269 291.092 54.4018C255.282 75.0767 243.013 120.867 263.688 156.677Z" fill="url(#paint114_linear)"/>
<path d="M267.31 154.153C287.985 189.963 333.775 202.233 369.585 181.558C405.395 160.883 417.665 115.093 396.99 79.2828C376.315 43.4727 330.525 31.2033 294.715 51.8782C258.905 72.5532 246.635 118.343 267.31 154.153Z" fill="url(#paint115_linear)"/>
<path d="M270.932 151.63C291.607 187.44 337.397 199.709 373.207 179.034C409.017 158.359 421.287 112.569 400.612 76.7593C379.937 40.9493 334.147 28.6799 298.337 49.3548C262.527 70.0297 250.257 115.82 270.932 151.63Z" fill="url(#paint116_linear)"/>
<path d="M274.589 148.978C295.264 184.788 341.054 197.058 376.864 176.383C412.674 155.708 424.943 109.918 404.268 74.108C383.593 38.2979 337.803 26.0285 301.993 46.7034C266.183 67.3784 253.914 113.168 274.589 148.978Z" fill="url(#paint117_linear)"/>
<path d="M278.373 146.361C299.048 182.171 344.838 194.441 380.648 173.766C416.458 153.091 428.727 107.301 408.052 71.4908C387.378 35.6807 341.587 23.4113 305.777 44.0863C269.967 64.7612 257.698 110.551 278.373 146.361Z" fill="url(#paint118_linear)"/>
<path d="M282.11 143.663C302.785 179.473 348.575 191.743 384.385 171.068C420.195 150.393 432.465 104.603 411.79 68.7926C391.115 32.9826 345.325 20.7132 309.515 41.3881C273.705 62.0631 261.435 107.853 282.11 143.663Z" fill="url(#paint119_linear)"/>
<path d="M285.882 140.837C306.557 176.647 352.347 188.917 388.157 168.242C423.967 147.567 436.237 101.777 415.562 65.9666C394.887 30.1566 349.097 17.8872 313.287 38.5621C277.477 59.237 265.207 105.027 285.882 140.837Z" fill="url(#paint120_linear)"/>
<path d="M289.701 138.092C310.375 173.902 356.166 186.172 391.976 165.497C427.786 144.822 440.055 99.0317 419.38 63.2217C398.705 27.4117 352.915 15.1423 317.105 35.8172C281.295 56.4921 269.026 102.282 289.701 138.092Z" fill="url(#paint121_linear)"/>
<path d="M293.553 135.219C314.228 171.029 360.018 183.299 395.828 162.624C431.638 141.949 443.908 96.1589 423.233 60.3489C402.558 24.5389 356.768 12.2695 320.958 32.9444C285.148 53.6193 272.878 99.4094 293.553 135.219Z" fill="url(#paint122_linear)"/>
<path d="M297.406 132.347C318.081 168.157 363.871 180.426 399.681 159.751C435.491 139.076 447.761 93.2861 427.086 57.4761C406.411 21.6661 360.621 9.39668 324.811 30.0716C289.001 50.7465 276.731 96.5366 297.406 132.347Z" fill="url(#paint123_linear)"/>
<path d="M301.293 129.346C321.968 165.156 367.758 177.425 403.568 156.75C439.378 136.075 451.648 90.2854 430.973 54.4754C410.298 18.6654 364.508 6.39595 328.698 27.0709C292.888 47.7458 280.618 93.5359 301.293 129.346Z" fill="url(#paint124_linear)"/>
<path d="M305.227 126.426C325.902 162.236 371.692 174.506 407.502 153.831C443.312 133.156 455.582 87.3658 434.907 51.5558C414.232 15.7458 368.442 3.4764 332.632 24.1513C296.822 44.8262 284.552 90.6163 305.227 126.426Z" fill="url(#paint125_linear)"/>
<path d="M309.114 123.426C329.789 159.236 375.579 171.505 411.389 150.83C447.199 130.155 459.469 84.3652 438.794 48.5552C418.119 12.7452 372.329 0.475786 336.519 21.1507C300.709 41.8256 288.439 87.6157 309.114 123.426Z" fill="url(#paint126_linear)"/>
<path d="M313.082 120.378C333.757 156.188 379.547 168.458 415.357 147.783C451.167 127.108 463.437 81.3177 442.762 45.5077C422.087 9.69772 376.297 -2.5717 340.487 18.1032C304.677 38.7781 292.407 84.5682 313.082 120.378Z" fill="url(#paint127_linear)"/>
</g>
<defs>
<linearGradient id="paint0_linear" x1="391.213" y1="-135.764" x2="261.534" y2="-60.8938" gradientUnits="userSpaceOnUse">
<stop stop-color="#E68358"/>
<stop offset="0.3668" stop-color="#BA4C30"/>
<stop offset="1" stop-color="#1C0152"/>
</linearGradient>
<linearGradient id="paint1_linear" x1="388.457" y1="-130.875" x2="258.778" y2="-56.0049" gradientUnits="userSpaceOnUse">
<stop stop-color="#E68358"/>
<stop offset="0.3668" stop-color="#BA4C30"/>
<stop offset="1" stop-color="#1C0152"/>
</linearGradient>
<linearGradient id="paint2_linear" x1="385.699" y1="-125.979" x2="256.02" y2="-51.1088" gradientUnits="userSpaceOnUse">
<stop stop-color="#E68357"/>
<stop offset="0.3668" stop-color="#BA4C30"/>
<stop offset="1" stop-color="#1C0152"/>
</linearGradient>
<linearGradient id="paint3_linear" x1="382.94" y1="-121.078" x2="253.26" y2="-46.2079" gradientUnits="userSpaceOnUse">
<stop stop-color="#E68257"/>
<stop offset="0.3668" stop-color="#B94C30"/>
<stop offset="1" stop-color="#1C0152"/>
</linearGradient>
<linearGradient id="paint4_linear" x1="380.182" y1="-116.174" x2="250.502" y2="-41.3035" gradientUnits="userSpaceOnUse">
<stop stop-color="#E68257"/>
<stop offset="0.3668" stop-color="#B94C30"/>
<stop offset="1" stop-color="#1C0152"/>
</linearGradient>
<linearGradient id="paint5_linear" x1="377.426" y1="-111.268" x2="247.747" y2="-36.3975" gradientUnits="userSpaceOnUse">
<stop stop-color="#E68256"/>
<stop offset="0.3668" stop-color="#B94C30"/>
<stop offset="1" stop-color="#1C0152"/>
</linearGradient>
<linearGradient id="paint6_linear" x1="374.675" y1="-106.362" x2="244.996" y2="-31.4919" gradientUnits="userSpaceOnUse">
<stop stop-color="#E68256"/>
<stop offset="0.3668" stop-color="#B94C30"/>
<stop offset="1" stop-color="#1C0152"/>
</linearGradient>
<linearGradient id="paint7_linear" x1="371.93" y1="-101.459" x2="242.25" y2="-26.5884" gradientUnits="userSpaceOnUse">
<stop stop-color="#E68156"/>
<stop offset="0.3668" stop-color="#B84C30"/>
<stop offset="1" stop-color="#1C0152"/>
</linearGradient>
<linearGradient id="paint8_linear" x1="369.193" y1="-96.5594" x2="239.513" y2="-21.6889" gradientUnits="userSpaceOnUse">
<stop stop-color="#E68155"/>
<stop offset="0.3668" stop-color="#B84C30"/>
<stop offset="1" stop-color="#1C0152"/>
</linearGradient>
<linearGradient id="paint9_linear" x1="366.465" y1="-91.6656" x2="236.785" y2="-16.7951" gradientUnits="userSpaceOnUse">
<stop stop-color="#E68155"/>
<stop offset="0.3668" stop-color="#B84C30"/>
<stop offset="1" stop-color="#1C0152"/>
</linearGradient>
<linearGradient id="paint10_linear" x1="363.748" y1="-86.7794" x2="234.068" y2="-11.9089" gradientUnits="userSpaceOnUse">
<stop stop-color="#E68155"/>
<stop offset="0.3668" stop-color="#B84B30"/>
<stop offset="1" stop-color="#1C0152"/>
</linearGradient>
<linearGradient id="paint11_linear" x1="361.044" y1="-81.9025" x2="231.364" y2="-7.032" gradientUnits="userSpaceOnUse">
<stop stop-color="#E68054"/>
<stop offset="0.3668" stop-color="#B84B30"/>
<stop offset="1" stop-color="#1C0152"/>
</linearGradient>
<linearGradient id="paint12_linear" x1="358.355" y1="-77.037" x2="228.675" y2="-2.16648" gradientUnits="userSpaceOnUse">
<stop stop-color="#E68054"/>
<stop offset="0.3668" stop-color="#B74B30"/>
<stop offset="1" stop-color="#1C0152"/>
</linearGradient>
<linearGradient id="paint13_linear" x1="355.682" y1="-72.1842" x2="226.002" y2="2.68626" gradientUnits="userSpaceOnUse">
<stop stop-color="#E68054"/>
<stop offset="0.3668" stop-color="#B74B30"/>
<stop offset="1" stop-color="#1C0152"/>
</linearGradient>
<linearGradient id="paint14_linear" x1="353.026" y1="-67.3463" x2="223.347" y2="7.52417" gradientUnits="userSpaceOnUse">
<stop stop-color="#E68054"/>
<stop offset="0.3668" stop-color="#B74B30"/>
<stop offset="1" stop-color="#1C0152"/>
</linearGradient>
<linearGradient id="paint15_linear" x1="350.391" y1="-62.5251" x2="220.711" y2="12.3455" gradientUnits="userSpaceOnUse">
<stop stop-color="#E68053"/>
<stop offset="0.3668" stop-color="#B74B30"/>
<stop offset="1" stop-color="#1C0152"/>
</linearGradient>
<linearGradient id="paint16_linear" x1="347.776" y1="-57.7222" x2="218.097" y2="17.1483" gradientUnits="userSpaceOnUse">
<stop stop-color="#E67F53"/>
<stop offset="0.3668" stop-color="#B74B31"/>
<stop offset="1" stop-color="#1C0152"/>
</linearGradient>
<linearGradient id="paint17_linear" x1="345.185" y1="-52.9396" x2="215.505" y2="21.9309" gradientUnits="userSpaceOnUse">
<stop stop-color="#E67F53"/>
<stop offset="0.3668" stop-color="#B64B31"/>
<stop offset="1" stop-color="#1C0152"/>
</linearGradient>
<linearGradient id="paint18_linear" x1="342.618" y1="-48.1791" x2="212.938" y2="26.6914" gradientUnits="userSpaceOnUse">
<stop stop-color="#E67F52"/>
<stop offset="0.3668" stop-color="#B64B31"/>
<stop offset="1" stop-color="#1C0152"/>
</linearGradient>
<linearGradient id="paint19_linear" x1="340.077" y1="-43.4424" x2="210.398" y2="31.4281" gradientUnits="userSpaceOnUse">
<stop stop-color="#E67F52"/>
<stop offset="0.3668" stop-color="#B64B31"/>
<stop offset="1" stop-color="#1C0152"/>
</linearGradient>
<linearGradient id="paint20_linear" x1="337.565" y1="-38.7315" x2="207.886" y2="36.139" gradientUnits="userSpaceOnUse">
<stop stop-color="#E57E52"/>
<stop offset="0.3668" stop-color="#B64A31"/>
<stop offset="1" stop-color="#1C0152"/>
</linearGradient>
<linearGradient id="paint21_linear" x1="335.083" y1="-34.0479" x2="205.403" y2="40.8226" gradientUnits="userSpaceOnUse">
<stop stop-color="#E57E51"/>
<stop offset="0.3668" stop-color="#B54A31"/>
<stop offset="1" stop-color="#1C0152"/>
</linearGradient>
<linearGradient id="paint22_linear" x1="332.632" y1="-29.3939" x2="202.952" y2="45.4766" gradientUnits="userSpaceOnUse">
<stop stop-color="#E57E51"/>
<stop offset="0.3668" stop-color="#B54A31"/>
<stop offset="1" stop-color="#1C0152"/>
</linearGradient>
<linearGradient id="paint23_linear" x1="330.214" y1="-24.7708" x2="200.535" y2="50.0997" gradientUnits="userSpaceOnUse">
<stop stop-color="#E57E51"/>
<stop offset="0.3668" stop-color="#B54A31"/>
<stop offset="1" stop-color="#1C0152"/>
</linearGradient>
<linearGradient id="paint24_linear" x1="327.831" y1="-20.1807" x2="198.152" y2="54.6898" gradientUnits="userSpaceOnUse">
<stop stop-color="#E57D50"/>
<stop offset="0.3668" stop-color="#B54A31"/>
<stop offset="1" stop-color="#1C0152"/>
</linearGradient>
<linearGradient id="paint25_linear" x1="325.485" y1="-15.6254" x2="195.805" y2="59.2451" gradientUnits="userSpaceOnUse">
<stop stop-color="#E57D50"/>
<stop offset="0.3668" stop-color="#B54A31"/>
<stop offset="1" stop-color="#1C0152"/>
</linearGradient>
<linearGradient id="paint26_linear" x1="323.176" y1="-11.1066" x2="193.497" y2="63.7639" gradientUnits="userSpaceOnUse">
<stop stop-color="#E57D50"/>
<stop offset="0.3668" stop-color="#B44A31"/>
<stop offset="1" stop-color="#1C0152"/>
</linearGradient>
<linearGradient id="paint27_linear" x1="320.908" y1="-6.6262" x2="191.228" y2="68.2443" gradientUnits="userSpaceOnUse">
<stop stop-color="#E57D4F"/>
<stop offset="0.3668" stop-color="#B44A31"/>
<stop offset="1" stop-color="#1C0152"/>
</linearGradient>
<linearGradient id="paint28_linear" x1="318.681" y1="-2.1859" x2="189.002" y2="72.6846" gradientUnits="userSpaceOnUse">
<stop stop-color="#E57D4F"/>
<stop offset="0.3668" stop-color="#B44A31"/>
<stop offset="1" stop-color="#1C0152"/>
</linearGradient>
<linearGradient id="paint29_linear" x1="316.498" y1="2.21236" x2="186.818" y2="77.0829" gradientUnits="userSpaceOnUse">
<stop stop-color="#E57C4F"/>
<stop offset="0.3668" stop-color="#B44A31"/>
<stop offset="1" stop-color="#1C0152"/>
</linearGradient>
<linearGradient id="paint30_linear" x1="314.359" y1="6.56673" x2="184.68" y2="81.4373" gradientUnits="userSpaceOnUse">
<stop stop-color="#E57C4E"/>
<stop offset="0.3668" stop-color="#B44931"/>
<stop offset="1" stop-color="#1C0152"/>
</linearGradient>
<linearGradient id="paint31_linear" x1="312.268" y1="10.8756" x2="182.588" y2="85.7461" gradientUnits="userSpaceOnUse">
<stop stop-color="#E57C4E"/>
<stop offset="0.3668" stop-color="#B34931"/>
<stop offset="1" stop-color="#1C0152"/>
</linearGradient>
<linearGradient id="paint32_linear" x1="310.225" y1="15.1369" x2="180.545" y2="90.0074" gradientUnits="userSpaceOnUse">
<stop stop-color="#E57C4E"/>
<stop offset="0.3668" stop-color="#B34931"/>
<stop offset="1" stop-color="#1C0152"/>
</linearGradient>
<linearGradient id="paint33_linear" x1="308.231" y1="19.3491" x2="178.552" y2="94.2196" gradientUnits="userSpaceOnUse">
<stop stop-color="#E57B4E"/>
<stop offset="0.3668" stop-color="#B34931"/>
<stop offset="1" stop-color="#1C0152"/>
</linearGradient>
<linearGradient id="paint34_linear" x1="306.29" y1="23.5101" x2="176.611" y2="98.3805" gradientUnits="userSpaceOnUse">
<stop stop-color="#E57B4D"/>
<stop offset="0.3668" stop-color="#B34931"/>
<stop offset="1" stop-color="#1C0152"/>
</linearGradient>
<linearGradient id="paint35_linear" x1="304.402" y1="27.6184" x2="174.723" y2="102.489" gradientUnits="userSpaceOnUse">
<stop stop-color="#E57B4D"/>
<stop offset="0.3668" stop-color="#B34931"/>
<stop offset="1" stop-color="#1C0152"/>
</linearGradient>
<linearGradient id="paint36_linear" x1="302.57" y1="31.6718" x2="172.89" y2="106.542" gradientUnits="userSpaceOnUse">
<stop stop-color="#E57B4D"/>
<stop offset="0.3668" stop-color="#B24931"/>
<stop offset="1" stop-color="#1C0152"/>
</linearGradient>
<linearGradient id="paint37_linear" x1="300.794" y1="35.6688" x2="171.114" y2="110.539" gradientUnits="userSpaceOnUse">
<stop stop-color="#E57A4C"/>
<stop offset="0.3668" stop-color="#B24932"/>
<stop offset="1" stop-color="#1C0152"/>
</linearGradient>
<linearGradient id="paint38_linear" x1="299.076" y1="39.6075" x2="169.397" y2="114.478" gradientUnits="userSpaceOnUse">
<stop stop-color="#E57A4C"/>
<stop offset="0.3668" stop-color="#B24932"/>
<stop offset="1" stop-color="#1C0152"/>
</linearGradient>
<linearGradient id="paint39_linear" x1="297.419" y1="43.486" x2="167.74" y2="118.356" gradientUnits="userSpaceOnUse">
<stop stop-color="#E57A4C"/>
<stop offset="0.3668" stop-color="#B24932"/>
<stop offset="1" stop-color="#1C0152"/>
</linearGradient>
<linearGradient id="paint40_linear" x1="295.824" y1="47.3027" x2="166.145" y2="122.173" gradientUnits="userSpaceOnUse">
<stop stop-color="#E57A4B"/>
<stop offset="0.3668" stop-color="#B14832"/>
<stop offset="1" stop-color="#1C0152"/>
</linearGradient>
<linearGradient id="paint41_linear" x1="294.293" y1="51.0555" x2="164.613" y2="125.926" gradientUnits="userSpaceOnUse">
<stop stop-color="#E57A4B"/>
<stop offset="0.3668" stop-color="#B14832"/>
<stop offset="1" stop-color="#1C0152"/>
</linearGradient>
<linearGradient id="paint42_linear" x1="292.827" y1="54.7429" x2="163.147" y2="129.613" gradientUnits="userSpaceOnUse">
<stop stop-color="#E5794B"/>
<stop offset="0.3668" stop-color="#B14832"/>
<stop offset="1" stop-color="#1C0152"/>
</linearGradient>
<linearGradient id="paint43_linear" x1="291.427" y1="58.3627" x2="161.748" y2="133.233" gradientUnits="userSpaceOnUse">
<stop stop-color="#E5794A"/>
<stop offset="0.3668" stop-color="#B14832"/>
<stop offset="1" stop-color="#1C0152"/>
</linearGradient>
<linearGradient id="paint44_linear" x1="290.097" y1="61.9135" x2="160.417" y2="136.784" gradientUnits="userSpaceOnUse">
<stop stop-color="#E5794A"/>
<stop offset="0.3668" stop-color="#B14832"/>
<stop offset="1" stop-color="#1C0152"/>
</linearGradient>
<linearGradient id="paint45_linear" x1="288.837" y1="65.3933" x2="159.158" y2="140.264" gradientUnits="userSpaceOnUse">
<stop stop-color="#E5794A"/>
<stop offset="0.3668" stop-color="#B04832"/>
<stop offset="1" stop-color="#1C0152"/>
</linearGradient>
<linearGradient id="paint46_linear" x1="287.649" y1="68.8002" x2="157.97" y2="143.671" gradientUnits="userSpaceOnUse">
<stop stop-color="#E57849"/>
<stop offset="0.3668" stop-color="#B04832"/>
<stop offset="1" stop-color="#1C0152"/>
</linearGradient>
<linearGradient id="paint47_linear" x1="286.535" y1="72.1325" x2="156.856" y2="147.003" gradientUnits="userSpaceOnUse">
<stop stop-color="#E57849"/>
<stop offset="0.3668" stop-color="#B04832"/>
<stop offset="1" stop-color="#1C0152"/>
</linearGradient>
<linearGradient id="paint48_linear" x1="285.497" y1="75.3882" x2="155.817" y2="150.259" gradientUnits="userSpaceOnUse">
<stop stop-color="#E57849"/>
<stop offset="0.3668" stop-color="#B04832"/>
<stop offset="1" stop-color="#1C0152"/>
</linearGradient>
<linearGradient id="paint49_linear" x1="284.536" y1="78.5659" x2="154.856" y2="153.436" gradientUnits="userSpaceOnUse">
<stop stop-color="#E57848"/>
<stop offset="0.3668" stop-color="#B04832"/>
<stop offset="1" stop-color="#1C0152"/>
</linearGradient>
<linearGradient id="paint50_linear" x1="283.653" y1="81.6635" x2="153.974" y2="156.534" gradientUnits="userSpaceOnUse">
<stop stop-color="#E47748"/>
<stop offset="0.3668" stop-color="#AF4732"/>
<stop offset="1" stop-color="#1C0152"/>
</linearGradient>
<linearGradient id="paint51_linear" x1="282.851" y1="84.6791" x2="153.172" y2="159.55" gradientUnits="userSpaceOnUse">
<stop stop-color="#E47748"/>
<stop offset="0.3668" stop-color="#AF4732"/>
<stop offset="1" stop-color="#1C0152"/>
</linearGradient>
<linearGradient id="paint52_linear" x1="282.132" y1="87.6111" x2="152.452" y2="162.482" gradientUnits="userSpaceOnUse">
<stop stop-color="#E47748"/>
<stop offset="0.3668" stop-color="#AF4732"/>
<stop offset="1" stop-color="#1C0152"/>
</linearGradient>
<linearGradient id="paint53_linear" x1="281.496" y1="90.4576" x2="151.817" y2="165.328" gradientUnits="userSpaceOnUse">
<stop stop-color="#E47747"/>
<stop offset="0.3668" stop-color="#AF4732"/>
<stop offset="1" stop-color="#1C0152"/>
</linearGradient>
<linearGradient id="paint54_linear" x1="280.946" y1="93.2168" x2="151.267" y2="168.087" gradientUnits="userSpaceOnUse">
<stop stop-color="#E47647"/>
<stop offset="0.3668" stop-color="#AE4732"/>
<stop offset="1" stop-color="#1C0152"/>
</linearGradient>
<linearGradient id="paint55_linear" x1="280.484" y1="95.8868" x2="150.804" y2="170.757" gradientUnits="userSpaceOnUse">
<stop stop-color="#E47647"/>
<stop offset="0.3668" stop-color="#AE4732"/>
<stop offset="1" stop-color="#1C0152"/>
</linearGradient>
<linearGradient id="paint56_linear" x1="280.11" y1="98.4658" x2="150.431" y2="173.336" gradientUnits="userSpaceOnUse">
<stop stop-color="#E47646"/>
<stop offset="0.3668" stop-color="#AE4732"/>
<stop offset="1" stop-color="#1C0152"/>
</linearGradient>
<linearGradient id="paint57_linear" x1="279.827" y1="100.952" x2="150.148" y2="175.823" gradientUnits="userSpaceOnUse">
<stop stop-color="#E47646"/>
<stop offset="0.3668" stop-color="#AE4732"/>
<stop offset="1" stop-color="#1C0152"/>
</linearGradient>
<linearGradient id="paint58_linear" x1="279.637" y1="103.344" x2="149.958" y2="178.214" gradientUnits="userSpaceOnUse">
<stop stop-color="#E47646"/>
<stop offset="0.3668" stop-color="#AE4732"/>
<stop offset="1" stop-color="#1C0152"/>
</linearGradient>
<linearGradient id="paint59_linear" x1="279.541" y1="105.639" x2="149.861" y2="180.51" gradientUnits="userSpaceOnUse">
<stop stop-color="#E47545"/>
<stop offset="0.3668" stop-color="#AD4733"/>
<stop offset="1" stop-color="#1C0152"/>
</linearGradient>
<linearGradient id="paint60_linear" x1="279.54" y1="107.837" x2="149.861" y2="182.707" gradientUnits="userSpaceOnUse">
<stop stop-color="#E47545"/>
<stop offset="0.3668" stop-color="#AD4633"/>
<stop offset="1" stop-color="#1C0152"/>
</linearGradient>
<linearGradient id="paint61_linear" x1="279.638" y1="109.934" x2="149.958" y2="184.804" gradientUnits="userSpaceOnUse">
<stop stop-color="#E47545"/>
<stop offset="0.3668" stop-color="#AD4633"/>
<stop offset="1" stop-color="#1C0152"/>
</linearGradient>
<linearGradient id="paint62_linear" x1="279.834" y1="111.929" x2="150.154" y2="186.8" gradientUnits="userSpaceOnUse">
<stop stop-color="#E47544"/>
<stop offset="0.3668" stop-color="#AD4633"/>
<stop offset="1" stop-color="#1C0152"/>
</linearGradient>
<linearGradient id="paint63_linear" x1="280.131" y1="113.821" x2="150.452" y2="188.691" gradientUnits="userSpaceOnUse">
<stop stop-color="#E47444"/>
<stop offset="0.3668" stop-color="#AD4633"/>
<stop offset="1" stop-color="#1C0152"/>
</linearGradient>
<linearGradient id="paint64_linear" x1="280.531" y1="115.607" x2="150.851" y2="190.477" gradientUnits="userSpaceOnUse">
<stop stop-color="#E47444"/>
<stop offset="0.3668" stop-color="#AC4633"/>
<stop offset="1" stop-color="#1C0152"/>
</linearGradient>
<linearGradient id="paint65_linear" x1="281.035" y1="117.286" x2="151.356" y2="192.157" gradientUnits="userSpaceOnUse">
<stop stop-color="#E47443"/>
<stop offset="0.3668" stop-color="#AC4633"/>
<stop offset="1" stop-color="#1C0152"/>
</linearGradient>
<linearGradient id="paint66_linear" x1="281.645" y1="118.856" x2="151.966" y2="193.727" gradientUnits="userSpaceOnUse">
<stop stop-color="#E47443"/>
<stop offset="0.3668" stop-color="#AC4633"/>
<stop offset="1" stop-color="#1C0152"/>
</linearGradient>
<linearGradient id="paint67_linear" x1="282.363" y1="120.315" x2="152.684" y2="195.186" gradientUnits="userSpaceOnUse">
<stop stop-color="#E47343"/>
<stop offset="0.3668" stop-color="#AC4633"/>
<stop offset="1" stop-color="#1C0152"/>
</linearGradient>
<linearGradient id="paint68_linear" x1="283.19" y1="121.662" x2="153.511" y2="196.532" gradientUnits="userSpaceOnUse">
<stop stop-color="#E47342"/>
<stop offset="0.3668" stop-color="#AB4633"/>
<stop offset="1" stop-color="#1C0152"/>
</linearGradient>
<linearGradient id="paint69_linear" x1="284.129" y1="122.893" x2="154.449" y2="197.764" gradientUnits="userSpaceOnUse">
<stop stop-color="#E47342"/>
<stop offset="0.3668" stop-color="#AB4633"/>
<stop offset="1" stop-color="#1C0152"/>
</linearGradient>
<linearGradient id="paint70_linear" x1="285.18" y1="124.009" x2="155.5" y2="198.88" gradientUnits="userSpaceOnUse">
<stop stop-color="#E47342"/>
<stop offset="0.3668" stop-color="#AB4533"/>
<stop offset="1" stop-color="#1C0152"/>
</linearGradient>
<linearGradient id="paint71_linear" x1="286.276" y1="124.953" x2="156.597" y2="199.824" gradientUnits="userSpaceOnUse">
<stop stop-color="#E47342"/>
<stop offset="0.3668" stop-color="#AB4533"/>
<stop offset="1" stop-color="#1C0152"/>
</linearGradient>
<linearGradient id="paint72_linear" x1="287.393" y1="125.738" x2="157.713" y2="200.608" gradientUnits="userSpaceOnUse">
<stop stop-color="#E47241"/>
<stop offset="0.3668" stop-color="#AB4533"/>
<stop offset="1" stop-color="#1C0152"/>
</linearGradient>
<linearGradient id="paint73_linear" x1="288.589" y1="126.422" x2="158.909" y2="201.292" gradientUnits="userSpaceOnUse">
<stop stop-color="#E47241"/>
<stop offset="0.3668" stop-color="#AA4533"/>
<stop offset="1" stop-color="#1C0152"/>
</linearGradient>
<linearGradient id="paint74_linear" x1="289.863" y1="127.005" x2="160.184" y2="201.876" gradientUnits="userSpaceOnUse">
<stop stop-color="#E47241"/>
<stop offset="0.3668" stop-color="#AA4533"/>
<stop offset="1" stop-color="#1C0152"/>
</linearGradient>
<linearGradient id="paint75_linear" x1="291.215" y1="127.491" x2="161.535" y2="202.361" gradientUnits="userSpaceOnUse">
<stop stop-color="#E47240"/>
<stop offset="0.3668" stop-color="#AA4533"/>
<stop offset="1" stop-color="#1C0152"/>
</linearGradient>
<linearGradient id="paint76_linear" x1="292.643" y1="127.878" x2="162.963" y2="202.749" gradientUnits="userSpaceOnUse">
<stop stop-color="#E47140"/>
<stop offset="0.3668" stop-color="#AA4533"/>
<stop offset="1" stop-color="#1C0152"/>
</linearGradient>
<linearGradient id="paint77_linear" x1="294.146" y1="128.17" x2="164.466" y2="203.04" gradientUnits="userSpaceOnUse">
<stop stop-color="#E47140"/>
<stop offset="0.3668" stop-color="#AA4533"/>
<stop offset="1" stop-color="#1C0152"/>
</linearGradient>
<linearGradient id="paint78_linear" x1="295.724" y1="128.366" x2="166.044" y2="203.236" gradientUnits="userSpaceOnUse">
<stop stop-color="#E4713F"/>
<stop offset="0.3668" stop-color="#A94533"/>
<stop offset="1" stop-color="#1C0152"/>
</linearGradient>
<linearGradient id="paint79_linear" x1="297.375" y1="128.468" x2="167.695" y2="203.339" gradientUnits="userSpaceOnUse">
<stop stop-color="#E4713F"/>
<stop offset="0.3668" stop-color="#A94533"/>
<stop offset="1" stop-color="#1C0152"/>
</linearGradient>
<linearGradient id="paint80_linear" x1="299.098" y1="128.477" x2="169.419" y2="203.348" gradientUnits="userSpaceOnUse">
<stop stop-color="#E3703F"/>
<stop offset="0.3668" stop-color="#A94434"/>
<stop offset="1" stop-color="#1C0152"/>
</linearGradient>
<linearGradient id="paint81_linear" x1="300.893" y1="128.395" x2="171.213" y2="203.266" gradientUnits="userSpaceOnUse">
<stop stop-color="#E3703E"/>
<stop offset="0.3668" stop-color="#A94434"/>
<stop offset="1" stop-color="#1C0152"/>
</linearGradient>
<linearGradient id="paint82_linear" x1="302.758" y1="128.222" x2="173.078" y2="203.093" gradientUnits="userSpaceOnUse">
<stop stop-color="#E3703E"/>
<stop offset="0.3668" stop-color="#A94434"/>
<stop offset="1" stop-color="#1C0152"/>
</linearGradient>
<linearGradient id="paint83_linear" x1="304.692" y1="127.96" x2="175.012" y2="202.831" gradientUnits="userSpaceOnUse">
<stop stop-color="#E3703E"/>
<stop offset="0.3668" stop-color="#A84434"/>
<stop offset="1" stop-color="#1C0152"/>
</linearGradient>
<linearGradient id="paint84_linear" x1="306.694" y1="127.61" x2="177.015" y2="202.48" gradientUnits="userSpaceOnUse">
<stop stop-color="#E3703D"/>
<stop offset="0.3668" stop-color="#A84434"/>
<stop offset="1" stop-color="#1C0152"/>
</linearGradient>
<linearGradient id="paint85_linear" x1="308.764" y1="127.172" x2="179.084" y2="202.043" gradientUnits="userSpaceOnUse">
<stop stop-color="#E36F3D"/>
<stop offset="0.3668" stop-color="#A84434"/>
<stop offset="1" stop-color="#1C0152"/>
</linearGradient>
<linearGradient id="paint86_linear" x1="310.9" y1="126.649" x2="181.22" y2="201.519" gradientUnits="userSpaceOnUse">
<stop stop-color="#E36F3D"/>
<stop offset="0.3668" stop-color="#A84434"/>
<stop offset="1" stop-color="#1C0152"/>
</linearGradient>
<linearGradient id="paint87_linear" x1="313.1" y1="126.04" x2="183.421" y2="200.911" gradientUnits="userSpaceOnUse">
<stop stop-color="#E36F3C"/>
<stop offset="0.3668" stop-color="#A74434"/>
<stop offset="1" stop-color="#1C0152"/>
</linearGradient>
<linearGradient id="paint88_linear" x1="315.365" y1="125.349" x2="185.686" y2="200.219" gradientUnits="userSpaceOnUse">
<stop stop-color="#E36F3C"/>
<stop offset="0.3668" stop-color="#A74434"/>
<stop offset="1" stop-color="#1C0152"/>
</linearGradient>
<linearGradient id="paint89_linear" x1="317.693" y1="124.575" x2="188.014" y2="199.445" gradientUnits="userSpaceOnUse">
<stop stop-color="#E36E3C"/>
<stop offset="0.3668" stop-color="#A74434"/>
<stop offset="1" stop-color="#1C0152"/>
</linearGradient>
<linearGradient id="paint90_linear" x1="320.083" y1="123.719" x2="190.404" y2="198.59" gradientUnits="userSpaceOnUse">
<stop stop-color="#E36E3C"/>
<stop offset="0.3668" stop-color="#A74334"/>
<stop offset="1" stop-color="#1C0152"/>
</linearGradient>
<linearGradient id="paint91_linear" x1="322.534" y1="122.784" x2="192.855" y2="197.654" gradientUnits="userSpaceOnUse">
<stop stop-color="#E36E3B"/>
<stop offset="0.3668" stop-color="#A74334"/>
<stop offset="1" stop-color="#1C0152"/>
</linearGradient>
<linearGradient id="paint92_linear" x1="325.045" y1="121.769" x2="195.366" y2="196.64" gradientUnits="userSpaceOnUse">
<stop stop-color="#E36E3B"/>
<stop offset="0.3668" stop-color="#A64334"/>
<stop offset="1" stop-color="#1C0152"/>
</linearGradient>
<linearGradient id="paint93_linear" x1="327.615" y1="120.677" x2="197.936" y2="195.547" gradientUnits="userSpaceOnUse">
<stop stop-color="#E36D3B"/>
<stop offset="0.3668" stop-color="#A64334"/>
<stop offset="1" stop-color="#1C0152"/>
</linearGradient>
<linearGradient id="paint94_linear" x1="330.243" y1="119.508" x2="200.564" y2="194.378" gradientUnits="userSpaceOnUse">
<stop stop-color="#E36D3A"/>
<stop offset="0.3668" stop-color="#A64334"/>
<stop offset="1" stop-color="#1C0152"/>
</linearGradient>
<linearGradient id="paint95_linear" x1="332.928" y1="118.263" x2="203.249" y2="193.134" gradientUnits="userSpaceOnUse">
<stop stop-color="#E36D3A"/>
<stop offset="0.3668" stop-color="#A64334"/>
<stop offset="1" stop-color="#1C0152"/>
</linearGradient>
<linearGradient id="paint96_linear" x1="335.669" y1="116.944" x2="205.99" y2="191.815" gradientUnits="userSpaceOnUse">
<stop stop-color="#E36D3A"/>
<stop offset="0.3668" stop-color="#A64334"/>
<stop offset="1" stop-color="#1C0152"/>
</linearGradient>
<linearGradient id="paint97_linear" x1="338.465" y1="115.552" x2="208.785" y2="190.423" gradientUnits="userSpaceOnUse">
<stop stop-color="#E36C39"/>
<stop offset="0.3668" stop-color="#A54334"/>
<stop offset="1" stop-color="#1C0152"/>
</linearGradient>
<linearGradient id="paint98_linear" x1="341.315" y1="114.088" x2="211.635" y2="188.959" gradientUnits="userSpaceOnUse">
<stop stop-color="#E36C39"/>
<stop offset="0.3668" stop-color="#A54334"/>
<stop offset="1" stop-color="#1C0152"/>
</linearGradient>
<linearGradient id="paint99_linear" x1="344.217" y1="112.553" x2="214.538" y2="187.424" gradientUnits="userSpaceOnUse">
<stop stop-color="#E36C39"/>
<stop offset="0.3668" stop-color="#A54334"/>
<stop offset="1" stop-color="#1C0152"/>
</linearGradient>
<linearGradient id="paint100_linear" x1="347.171" y1="110.949" x2="217.492" y2="185.819" gradientUnits="userSpaceOnUse">
<stop stop-color="#E36C38"/>
<stop offset="0.3668" stop-color="#A54234"/>
<stop offset="1" stop-color="#1C0152"/>
</linearGradient>
<linearGradient id="paint101_linear" x1="350.177" y1="109.276" x2="220.497" y2="184.146" gradientUnits="userSpaceOnUse">
<stop stop-color="#E36C38"/>
<stop offset="0.3668" stop-color="#A44234"/>
<stop offset="1" stop-color="#1C0152"/>
</linearGradient>
<linearGradient id="paint102_linear" x1="353.231" y1="107.535" x2="223.552" y2="182.405" gradientUnits="userSpaceOnUse">
<stop stop-color="#E36B38"/>
<stop offset="0.3668" stop-color="#A44235"/>
<stop offset="1" stop-color="#1C0152"/>
</linearGradient>
<linearGradient id="paint103_linear" x1="356.335" y1="105.728" x2="226.655" y2="180.599" gradientUnits="userSpaceOnUse">
<stop stop-color="#E36B37"/>
<stop offset="0.3668" stop-color="#A44235"/>
<stop offset="1" stop-color="#1C0152"/>
</linearGradient>
<linearGradient id="paint104_linear" x1="359.486" y1="103.856" x2="229.807" y2="178.727" gradientUnits="userSpaceOnUse">
<stop stop-color="#E36B37"/>
<stop offset="0.3668" stop-color="#A44235"/>
<stop offset="1" stop-color="#1C0152"/>
</linearGradient>
<linearGradient id="paint105_linear" x1="362.684" y1="101.92" x2="233.005" y2="176.791" gradientUnits="userSpaceOnUse">
<stop stop-color="#E36B37"/>
<stop offset="0.3668" stop-color="#A44235"/>
<stop offset="1" stop-color="#1C0152"/>
</linearGradient>
<linearGradient id="paint106_linear" x1="365.928" y1="99.9219" x2="236.249" y2="174.792" gradientUnits="userSpaceOnUse">
<stop stop-color="#E36A36"/>
<stop offset="0.3668" stop-color="#A34235"/>
<stop offset="1" stop-color="#1C0152"/>
</linearGradient>
<linearGradient id="paint107_linear" x1="369.217" y1="97.8616" x2="239.537" y2="172.732" gradientUnits="userSpaceOnUse">
<stop stop-color="#E36A36"/>
<stop offset="0.3668" stop-color="#A34235"/>
<stop offset="1" stop-color="#1C0152"/>
</linearGradient>
<linearGradient id="paint108_linear" x1="372.549" y1="95.741" x2="242.869" y2="170.611" gradientUnits="userSpaceOnUse">
<stop stop-color="#E36A36"/>
<stop offset="0.3668" stop-color="#A34235"/>
<stop offset="1" stop-color="#1C0152"/>
</linearGradient>
<linearGradient id="paint109_linear" x1="375.923" y1="93.561" x2="246.244" y2="168.432" gradientUnits="userSpaceOnUse">
<stop stop-color="#E36A36"/>
<stop offset="0.3668" stop-color="#A34235"/>
<stop offset="1" stop-color="#1C0152"/>
</linearGradient>
<linearGradient id="paint110_linear" x1="379.339" y1="91.323" x2="249.66" y2="166.193" gradientUnits="userSpaceOnUse">
<stop stop-color="#E26935"/>
<stop offset="0.3668" stop-color="#A34135"/>
<stop offset="1" stop-color="#1C0152"/>
</linearGradient>
<linearGradient id="paint111_linear" x1="382.796" y1="89.0278" x2="253.117" y2="163.898" gradientUnits="userSpaceOnUse">
<stop stop-color="#E26935"/>
<stop offset="0.3668" stop-color="#A24135"/>
<stop offset="1" stop-color="#1C0152"/>
</linearGradient>
<linearGradient id="paint112_linear" x1="386.293" y1="86.677" x2="256.613" y2="161.547" gradientUnits="userSpaceOnUse">
<stop stop-color="#E26935"/>
<stop offset="0.3668" stop-color="#A24135"/>
<stop offset="1" stop-color="#1C0152"/>
</linearGradient>
<linearGradient id="paint113_linear" x1="389.827" y1="84.2712" x2="260.148" y2="159.142" gradientUnits="userSpaceOnUse">
<stop stop-color="#E26934"/>
<stop offset="0.3668" stop-color="#A24135"/>
<stop offset="1" stop-color="#1C0152"/>
</linearGradient>
<linearGradient id="paint114_linear" x1="393.4" y1="81.8121" x2="263.72" y2="156.683" gradientUnits="userSpaceOnUse">
<stop stop-color="#E26934"/>
<stop offset="0.3668" stop-color="#A24135"/>
<stop offset="1" stop-color="#1C0152"/>
</linearGradient>
<linearGradient id="paint115_linear" x1="397.008" y1="79.3006" x2="267.329" y2="154.171" gradientUnits="userSpaceOnUse">
<stop stop-color="#E26834"/>
<stop offset="0.3668" stop-color="#A24135"/>
<stop offset="1" stop-color="#1C0152"/>
</linearGradient>
<linearGradient id="paint116_linear" x1="400.653" y1="76.738" x2="270.973" y2="151.608" gradientUnits="userSpaceOnUse">
<stop stop-color="#E26833"/>
<stop offset="0.3668" stop-color="#A14135"/>
<stop offset="1" stop-color="#1C0152"/>
</linearGradient>
<linearGradient id="paint117_linear" x1="404.331" y1="74.1253" x2="274.652" y2="148.996" gradientUnits="userSpaceOnUse">
<stop stop-color="#E26833"/>
<stop offset="0.3668" stop-color="#A14135"/>
<stop offset="1" stop-color="#1C0152"/>
</linearGradient>
<linearGradient id="paint118_linear" x1="408.043" y1="71.4636" x2="278.364" y2="146.334" gradientUnits="userSpaceOnUse">
<stop stop-color="#E26833"/>
<stop offset="0.3668" stop-color="#A14135"/>
<stop offset="1" stop-color="#1C0152"/>
</linearGradient>
<linearGradient id="paint119_linear" x1="411.788" y1="68.7542" x2="282.108" y2="143.625" gradientUnits="userSpaceOnUse">
<stop stop-color="#E26732"/>
<stop offset="0.3668" stop-color="#A14135"/>
<stop offset="1" stop-color="#1C0152"/>
</linearGradient>
<linearGradient id="paint120_linear" x1="415.564" y1="65.9982" x2="285.884" y2="140.869" gradientUnits="userSpaceOnUse">
<stop stop-color="#E26732"/>
<stop offset="0.3668" stop-color="#A04035"/>
<stop offset="1" stop-color="#1C0152"/>
</linearGradient>
<linearGradient id="paint121_linear" x1="419.369" y1="63.1969" x2="289.69" y2="138.067" gradientUnits="userSpaceOnUse">
<stop stop-color="#E26732"/>
<stop offset="0.3668" stop-color="#A04035"/>
<stop offset="1" stop-color="#1C0152"/>
</linearGradient>
<linearGradient id="paint122_linear" x1="423.205" y1="60.3512" x2="293.525" y2="135.222" gradientUnits="userSpaceOnUse">
<stop stop-color="#E26731"/>
<stop offset="0.3668" stop-color="#A04035"/>
<stop offset="1" stop-color="#1C0152"/>
</linearGradient>
<linearGradient id="paint123_linear" x1="427.068" y1="57.4625" x2="297.389" y2="132.333" gradientUnits="userSpaceOnUse">
<stop stop-color="#E26631"/>
<stop offset="0.3668" stop-color="#A04036"/>
<stop offset="1" stop-color="#1C0152"/>
</linearGradient>
<linearGradient id="paint124_linear" x1="430.959" y1="54.5316" x2="301.28" y2="129.402" gradientUnits="userSpaceOnUse">
<stop stop-color="#E26631"/>
<stop offset="0.3668" stop-color="#A04036"/>
<stop offset="1" stop-color="#1C0152"/>
</linearGradient>
<linearGradient id="paint125_linear" x1="434.877" y1="51.5602" x2="305.197" y2="126.431" gradientUnits="userSpaceOnUse">
<stop stop-color="#E26630"/>
<stop offset="0.3668" stop-color="#9F4036"/>
<stop offset="1" stop-color="#1C0152"/>
</linearGradient>
<linearGradient id="paint126_linear" x1="438.819" y1="48.5491" x2="309.139" y2="123.42" gradientUnits="userSpaceOnUse">
<stop stop-color="#E26630"/>
<stop offset="0.3668" stop-color="#9F4036"/>
<stop offset="1" stop-color="#1C0152"/>
</linearGradient>
<linearGradient id="paint127_linear" x1="442.785" y1="45.4995" x2="313.106" y2="120.37" gradientUnits="userSpaceOnUse">
<stop stop-color="#E26630"/>
<stop offset="0.3668" stop-color="#9F4036"/>
<stop offset="1" stop-color="#1C0152"/>
</linearGradient>
</defs>
</svg>
